<svg width="58" height="60" viewBox="0 0 58 60" fill="none" xmlns="http://www.w3.org/2000/svg">
<path d="M57.982 23.3486C57.9745 23.2405 57.9492 23.136 57.9061 23.0338C57.8898 22.9949 57.8762 22.9572 57.857 22.9207C57.7842 22.7918 57.6935 22.6678 57.5656 22.5645L30.3995 0.356248C30.2716 0.251707 30.1214 0.177526 29.9637 0.118002C29.919 0.100952 29.8729 0.0912307 29.8268 0.07792C29.7004 0.0426242 29.5725 0.0219851 29.4386 0.0146567C29.4075 0.0133107 29.3791 0 29.348 0H1.48725C0.666327 0 0 0.544692 0 1.21576V58.7852C0 59.4574 0.666327 60.0009 1.48725 60.0009H56.5127C57.335 60.0009 57.9999 59.4576 57.9999 58.7852V23.424C58.0014 23.3974 57.9851 23.3742 57.982 23.3486ZM52.9242 22.2084H30.8351V4.1504L52.9242 22.2084ZM2.9745 57.5694V2.43137H27.8593V23.424C27.8593 24.0951 28.5256 24.6398 29.3466 24.6398H55.0256V57.5694H2.9745Z" fill="#010002"/>
</svg>
